<svg width="176" height="42" viewBox="0 0 176 42" fill="none" xmlns="http://www.w3.org/2000/svg">
<path d="M57.369 26.7972H54L59.1334 11.8537H63.1849L68.3111 26.7972H64.9421L61.2173 15.2685H61.1011L57.369 26.7972ZM57.1585 20.9234H65.1163V23.3896H57.1585V20.9234Z" fill="#2CB1BC"/>
<path d="M70.0428 31V15.5896H73.0923V17.4721H73.2303C73.3658 17.1705 73.5619 16.864 73.8184 16.5527C74.0798 16.2365 74.4186 15.9739 74.8349 15.7647C75.2561 15.5507 75.7788 15.4436 76.4033 15.4436C77.2165 15.4436 77.9668 15.6577 78.6541 16.0857C79.3415 16.5089 79.8909 17.1486 80.3023 18.0047C80.7138 18.856 80.9195 19.9238 80.9195 21.208C80.9195 22.4581 80.7186 23.5137 80.3169 24.3747C79.9199 25.2308 79.3778 25.8802 78.6904 26.3229C78.0079 26.7607 77.2431 26.9796 76.396 26.9796C75.7958 26.9796 75.2851 26.8799 74.864 26.6804C74.4477 26.481 74.1064 26.2305 73.8402 25.9289C73.574 25.6224 73.3707 25.3135 73.2303 25.0022H73.1359V31H70.0428ZM73.0706 21.1934C73.0706 21.8598 73.1625 22.4411 73.3465 22.9372C73.5304 23.4334 73.7966 23.8201 74.1452 24.0974C74.4937 24.3698 74.9172 24.506 75.4158 24.506C75.9192 24.506 76.3452 24.3674 76.6937 24.0901C77.0422 23.808 77.306 23.4188 77.4851 22.9227C77.6691 22.4216 77.761 21.8452 77.761 21.1934C77.761 20.5464 77.6715 19.9773 77.4924 19.486C77.3133 18.9946 77.0495 18.6104 76.701 18.3331C76.3524 18.0558 75.9241 17.9172 75.4158 17.9172C74.9124 17.9172 74.4864 18.051 74.1379 18.3185C73.7942 18.586 73.5304 18.9655 73.3465 19.4568C73.1625 19.9481 73.0706 20.5269 73.0706 21.1934Z" fill="#2CB1BC"/>
<path d="M82.9816 26.7972V15.5896H86.0747V26.7972H82.9816ZM84.5354 14.1448C84.0755 14.1448 83.681 13.9916 83.3519 13.6852C83.0276 13.3738 82.8654 13.0017 82.8654 12.5688C82.8654 12.1407 83.0276 11.7734 83.3519 11.467C83.681 11.1557 84.0755 11 84.5354 11C84.9953 11 85.3873 11.1557 85.7117 11.467C86.0408 11.7734 86.2054 12.1407 86.2054 12.5688C86.2054 13.0017 86.0408 13.3738 85.7117 13.6852C85.3873 13.9916 84.9953 14.1448 84.5354 14.1448Z" fill="#2CB1BC"/>
<path d="M96.6773 16.1514C96.6192 15.5628 96.3699 15.1056 95.9294 14.7796C95.489 14.4537 94.8911 14.2908 94.136 14.2908C93.6229 14.2908 93.1897 14.3637 92.8363 14.5097C92.483 14.6507 92.2119 14.8477 92.0231 15.1007C91.8392 15.3536 91.7472 15.6406 91.7472 15.9617C91.7375 16.2292 91.7932 16.4627 91.9142 16.6622C92.0401 16.8616 92.2119 17.0343 92.4297 17.1802C92.6476 17.3213 92.8993 17.4453 93.1849 17.5524C93.4704 17.6545 93.7754 17.7421 94.0997 17.815L95.4357 18.1361C96.0843 18.282 96.6797 18.4766 97.2219 18.7198C97.764 18.963 98.2335 19.2622 98.6305 19.6173C99.0274 19.9724 99.3348 20.3907 99.5526 20.8723C99.7753 21.3539 99.889 21.906 99.8939 22.5286C99.889 23.4431 99.6567 24.236 99.1968 24.9073C98.7418 25.5738 98.0835 26.0918 97.2219 26.4615C96.3651 26.8263 95.3316 27.0088 94.1215 27.0088C92.921 27.0088 91.8755 26.8239 90.9848 26.4542C90.099 26.0845 89.4068 25.5373 88.9082 24.8125C88.4145 24.0828 88.1555 23.1805 88.1313 22.1054H91.1736C91.2075 22.6065 91.3503 23.0248 91.602 23.3605C91.8585 23.6912 92.1998 23.9417 92.6258 24.112C93.0566 24.2774 93.5431 24.3601 94.0852 24.3601C94.6177 24.3601 95.0799 24.2823 95.472 24.1266C95.8689 23.9709 96.1763 23.7545 96.3941 23.4772C96.612 23.1999 96.7209 22.8813 96.7209 22.5213C96.7209 22.1857 96.6216 21.9036 96.4232 21.6749C96.2296 21.4463 95.944 21.2517 95.5664 21.0912C95.1937 20.9307 94.7363 20.7847 94.1941 20.6534L92.5749 20.2448C91.3212 19.9383 90.3314 19.4592 89.6053 18.8074C88.8792 18.1555 88.5186 17.2775 88.5234 16.1733C88.5186 15.2685 88.7582 14.478 89.2422 13.8019C89.7311 13.1257 90.4015 12.598 91.2535 12.2185C92.1054 11.8391 93.0735 11.6494 94.1578 11.6494C95.2615 11.6494 96.2247 11.8391 97.0476 12.2185C97.8753 12.598 98.5191 13.1257 98.979 13.8019C99.4388 14.478 99.676 15.2612 99.6905 16.1514H96.6773Z" fill="#2CB1BC"/>
<path d="M105.044 20.3178V26.7972H101.95V11.8537H104.956V17.5669H105.087C105.339 16.9054 105.745 16.3873 106.307 16.0128C106.868 15.6333 107.573 15.4436 108.42 15.4436C109.194 15.4436 109.87 15.6139 110.446 15.9544C111.027 16.29 111.477 16.774 111.796 17.4064C112.12 18.0339 112.28 18.7855 112.275 19.6611V26.7972H109.182V20.2156C109.187 19.5249 109.013 18.9874 108.659 18.6031C108.311 18.2188 107.822 18.0266 107.193 18.0266C106.772 18.0266 106.399 18.1166 106.075 18.2966C105.755 18.4766 105.503 18.7393 105.32 19.0846C105.14 19.4251 105.048 19.8362 105.044 20.3178Z" fill="#2CB1BC"/>
<path d="M119.792 27.0161C118.645 27.0161 117.657 26.7826 116.83 26.3156C116.007 25.8437 115.373 25.1773 114.927 24.3163C114.482 23.4504 114.259 22.4265 114.259 21.2444C114.259 20.0916 114.482 19.0798 114.927 18.209C115.373 17.3383 116 16.6597 116.808 16.1733C117.621 15.6869 118.575 15.4436 119.669 15.4436C120.404 15.4436 121.089 15.5628 121.724 15.8012C122.362 16.0347 122.919 16.3873 123.394 16.8592C123.873 17.331 124.245 17.9245 124.512 18.6395C124.778 19.3498 124.911 20.1816 124.911 21.135V21.9887H115.494V20.0624H121.999C121.999 19.6149 121.903 19.2184 121.709 18.873C121.515 18.5277 121.247 18.2577 120.903 18.0631C120.564 17.8637 120.17 17.764 119.72 17.764C119.25 17.764 118.834 17.8734 118.471 18.0923C118.112 18.3063 117.832 18.5958 117.628 18.9606C117.425 19.3206 117.321 19.7219 117.316 20.1645V21.996C117.316 22.5505 117.418 23.0297 117.621 23.4334C117.829 23.8372 118.122 24.1485 118.5 24.3674C118.877 24.5863 119.325 24.6957 119.843 24.6957C120.187 24.6957 120.501 24.6471 120.787 24.5498C121.072 24.4525 121.317 24.3066 121.52 24.112C121.724 23.9174 121.878 23.6791 121.985 23.3969L124.846 23.5866C124.7 24.2774 124.403 24.8806 123.953 25.3962C123.507 25.907 122.931 26.3058 122.225 26.5928C121.523 26.875 120.712 27.0161 119.792 27.0161Z" fill="#2CB1BC"/>
<path d="M126.93 26.7972V15.5896H129.928V17.5451H130.044C130.248 16.8494 130.589 16.3241 131.068 15.969C131.547 15.609 132.099 15.429 132.724 15.429C132.879 15.429 133.046 15.4388 133.225 15.4582C133.404 15.4777 133.561 15.5044 133.697 15.5385V18.2966C133.551 18.2528 133.351 18.2139 133.094 18.1799C132.837 18.1458 132.603 18.1288 132.39 18.1288C131.935 18.1288 131.528 18.2285 131.17 18.4279C130.816 18.6225 130.536 18.8949 130.328 19.2452C130.124 19.5954 130.023 19.9991 130.023 20.4564V26.7972H126.93Z" fill="#2CB1BC"/>
<path d="M138.389 11.8537V26.7972H135.296V11.8537H138.389Z" fill="#2CB1BC"/>
<path d="M145.906 27.0161C144.778 27.0161 143.802 26.7753 142.98 26.2937C142.162 25.8072 141.53 25.1311 141.085 24.2652C140.639 23.3945 140.417 22.3851 140.417 21.2371C140.417 20.0794 140.639 19.0676 141.085 18.2018C141.53 17.331 142.162 16.6549 142.98 16.1733C143.802 15.6869 144.778 15.4436 145.906 15.4436C147.034 15.4436 148.006 15.6869 148.825 16.1733C149.647 16.6549 150.282 17.331 150.727 18.2018C151.172 19.0676 151.395 20.0794 151.395 21.2371C151.395 22.3851 151.172 23.3945 150.727 24.2652C150.282 25.1311 149.647 25.8072 148.825 26.2937C148.006 26.7753 147.034 27.0161 145.906 27.0161ZM145.92 24.6082C146.433 24.6082 146.862 24.4622 147.205 24.1704C147.549 23.8736 147.808 23.4699 147.982 22.9591C148.161 22.4484 148.251 21.8671 148.251 21.2152C148.251 20.5634 148.161 19.9821 147.982 19.4714C147.808 18.9606 147.549 18.5569 147.205 18.2601C146.862 17.9634 146.433 17.815 145.92 17.815C145.402 17.815 144.967 17.9634 144.613 18.2601C144.265 18.5569 144.001 18.9606 143.822 19.4714C143.648 19.9821 143.56 20.5634 143.56 21.2152C143.56 21.8671 143.648 22.4484 143.822 22.9591C144.001 23.4699 144.265 23.8736 144.613 24.1704C144.967 24.4622 145.402 24.6082 145.92 24.6082Z" fill="#2CB1BC"/>
<path d="M158.445 27.0161C157.303 27.0161 156.32 26.7728 155.497 26.2864C154.679 25.7951 154.05 25.1141 153.609 24.2433C153.174 23.3726 152.956 22.3705 152.956 21.2371C152.956 20.0891 153.176 19.0822 153.617 18.2163C154.062 17.3456 154.694 16.667 155.512 16.1806C156.33 15.6893 157.303 15.4436 158.431 15.4436C159.404 15.4436 160.256 15.6212 160.986 15.9763C161.717 16.3314 162.296 16.83 162.722 17.4721C163.148 18.1142 163.383 18.8682 163.426 19.734H160.507C160.425 19.1746 160.207 18.7247 159.854 18.3842C159.505 18.0388 159.048 17.8661 158.481 17.8661C158.002 17.8661 157.584 17.9974 157.225 18.2601C156.872 18.5179 156.596 18.8949 156.398 19.3911C156.199 19.8873 156.1 20.488 156.1 21.1934C156.1 21.9084 156.197 22.5165 156.39 23.0175C156.589 23.5185 156.867 23.9004 157.225 24.1631C157.584 24.4258 158.002 24.5571 158.481 24.5571C158.835 24.5571 159.152 24.4841 159.433 24.3382C159.718 24.1923 159.953 23.9807 160.137 23.7034C160.326 23.4213 160.449 23.0832 160.507 22.6892H163.426C163.378 23.5453 163.145 24.2993 162.729 24.9511C162.318 25.5981 161.749 26.104 161.023 26.4688C160.297 26.8336 159.437 27.0161 158.445 27.0161Z" fill="#2CB1BC"/>
<path d="M168.209 23.5721L168.216 19.8435H168.667L172.239 15.5896H175.789L170.99 21.2225H170.257L168.209 23.5721ZM165.406 26.7972V11.8537H168.5V26.7972H165.406ZM172.377 26.7972L169.095 21.9157L171.157 19.7194L176 26.7972H172.377Z" fill="#2CB1BC"/>
<path d="M32.8 0H8.2C3.67126 0 0 3.76081 0 8.4V33.6C0 38.2392 3.67126 42 8.2 42H32.8C37.3287 42 41 38.2392 41 33.6V8.4C41 3.76081 37.3287 0 32.8 0Z" fill="#2CB1BC"/>
<path d="M28.2148 25.5938C27.6289 25.0312 26.9616 24.8594 26.2129 25.0781L24.6504 23.5781C26.0501 21.9219 26.75 20.0625 26.75 18C26.75 15.5 25.8385 13.375 24.0156 11.625C22.1927 9.875 19.9792 9 17.375 9C14.7708 9 12.5573 9.875 10.7344 11.625C8.91146 13.375 8 15.5 8 18C8 20.5 8.91146 22.625 10.7344 24.375C12.5573 26.125 14.7708 27 17.375 27C19.6536 27 21.5905 26.3281 23.1855 24.9844L24.748 26.4844C24.5527 27.2344 24.7318 27.875 25.2852 28.4062L29.4355 32.3906C29.8587 32.7969 30.347 33 30.9004 33C31.4863 33 31.9746 32.7969 32.3652 32.3906C32.7884 31.9844 33 31.5156 33 30.9844C33 30.4531 32.7884 29.9844 32.3652 29.5781L28.2148 25.5938ZM17.375 24.9844C15.3568 24.9844 13.6396 24.3047 12.2236 22.9453C10.8076 21.5859 10.0996 19.9375 10.0996 18C10.0996 16.0625 10.8076 14.4141 12.2236 13.0547C13.6396 11.6953 15.3568 11.0156 17.375 11.0156C19.3932 11.0156 21.1104 11.6953 22.5264 13.0547C23.9424 14.4141 24.6504 16.0625 24.6504 18C24.6504 19.9375 23.9424 21.5859 22.5264 22.9453C21.1104 24.3047 19.3932 24.9844 17.375 24.9844Z" fill="white"/>
</svg>
