<svg width="198" height="42" viewBox="0 0 198 42" fill="none" xmlns="http://www.w3.org/2000/svg">
<path d="M32.8 0H8.2C3.67126 0 0 3.76081 0 8.4V33.6C0 38.2392 3.67126 42 8.2 42H32.8C37.3287 42 41 38.2392 41 33.6V8.4C41 3.76081 37.3287 0 32.8 0Z" fill="#2CB1BC"/>
<path d="M57.2103 13.1994V27.7863H54V13.1994H57.2103Z" fill="#2CB1BC"/>
<path d="M69.2676 19.9658L66.3761 20.1368C66.3267 19.8993 66.2204 19.6857 66.0573 19.4957C65.8942 19.301 65.6792 19.1467 65.4123 19.0328C65.1503 18.9141 64.8364 18.8547 64.4707 18.8547C63.9813 18.8547 63.5686 18.9544 63.2325 19.1538C62.8964 19.3485 62.7283 19.6097 62.7283 19.9373C62.7283 20.1985 62.8371 20.4193 63.0546 20.5997C63.272 20.7802 63.6452 20.925 64.1741 21.0342L66.2352 21.433C67.3424 21.6515 68.1679 22.0028 68.7116 22.4872C69.2553 22.9715 69.5271 23.6078 69.5271 24.396C69.5271 25.113 69.3072 25.7422 68.8673 26.2835C68.4323 26.8248 67.8342 27.2474 67.073 27.5513C66.3168 27.8504 65.4444 28 64.4558 28C62.9483 28 61.7472 27.6985 60.8526 27.0954C59.9629 26.4877 59.4414 25.6614 59.2882 24.6168L62.3947 24.4601C62.4886 24.9017 62.716 25.2388 63.0768 25.4715C63.4376 25.6994 63.8998 25.8134 64.4633 25.8134C65.0168 25.8134 65.4617 25.7113 65.7978 25.5071C66.1389 25.2982 66.3119 25.0299 66.3168 24.7023C66.3119 24.4269 66.1908 24.2013 65.9535 24.0256C65.7163 23.8452 65.3505 23.7075 64.8562 23.6125L62.884 23.235C61.7719 23.0214 60.944 22.651 60.4003 22.1239C59.8615 21.5969 59.5921 20.925 59.5921 20.1083C59.5921 19.4055 59.7899 18.8001 60.1853 18.292C60.5856 17.784 61.1466 17.3922 61.8683 17.1168C62.5949 16.8414 63.445 16.7037 64.4188 16.7037C65.8571 16.7037 66.989 16.9957 67.8145 17.5798C68.6449 18.1638 69.1292 18.9592 69.2676 19.9658Z" fill="#2CB1BC"/>
<path d="M80.9913 19.9658L78.0998 20.1368C78.0504 19.8993 77.9441 19.6857 77.781 19.4957C77.6179 19.301 77.4029 19.1467 77.1359 19.0328C76.874 18.9141 76.5601 18.8547 76.1943 18.8547C75.705 18.8547 75.2923 18.9544 74.9562 19.1538C74.6201 19.3485 74.452 19.6097 74.452 19.9373C74.452 20.1985 74.5607 20.4193 74.7782 20.5997C74.9957 20.7802 75.3689 20.925 75.8978 21.0342L77.9589 21.433C79.0661 21.6515 79.8915 22.0028 80.4352 22.4872C80.979 22.9715 81.2508 23.6078 81.2508 24.396C81.2508 25.113 81.0309 25.7422 80.5909 26.2835C80.156 26.8248 79.5579 27.2474 78.7967 27.5513C78.0405 27.8504 77.1681 28 76.1795 28C74.672 28 73.4709 27.6985 72.5762 27.0954C71.6865 26.4877 71.1651 25.6614 71.0118 24.6168L74.1184 24.4601C74.2123 24.9017 74.4397 25.2388 74.8005 25.4715C75.1613 25.6994 75.6234 25.8134 76.1869 25.8134C76.7405 25.8134 77.1854 25.7113 77.5215 25.5071C77.8625 25.2982 78.0355 25.0299 78.0405 24.7023C78.0355 24.4269 77.9144 24.2013 77.6772 24.0256C77.4399 23.8452 77.0742 23.7075 76.5799 23.6125L74.6077 23.235C73.4956 23.0214 72.6677 22.651 72.124 22.1239C71.5852 21.5969 71.3158 20.925 71.3158 20.1083C71.3158 19.4055 71.5135 18.8001 71.9089 18.292C72.3093 17.784 72.8703 17.3922 73.592 17.1168C74.3186 16.8414 75.1687 16.7037 76.1424 16.7037C77.5808 16.7037 78.7127 16.9957 79.5381 17.5798C80.3685 18.1638 80.8529 18.9592 80.9913 19.9658Z" fill="#2CB1BC"/>
<path d="M90.5426 23.1282V16.8462H93.7011V27.7863H90.6687V25.7991H90.55C90.293 26.4402 89.8655 26.9554 89.2674 27.3447C88.6743 27.7341 87.9501 27.9288 87.095 27.9288C86.3338 27.9288 85.6641 27.7626 85.0858 27.4302C84.5075 27.0978 84.0552 26.6254 83.729 26.0128C83.4077 25.4003 83.2446 24.6667 83.2397 23.812V16.8462H86.3981V23.2707C86.403 23.9164 86.5835 24.4269 86.9393 24.802C87.2952 25.1771 87.7722 25.3647 88.3703 25.3647C88.7509 25.3647 89.1067 25.2816 89.4379 25.1154C89.7691 24.9444 90.036 24.6928 90.2386 24.3604C90.4462 24.028 90.5476 23.6173 90.5426 23.1282Z" fill="#2CB1BC"/>
<path d="M101.417 28C100.246 28 99.2376 27.7721 98.3924 27.3162C97.5521 26.8557 96.9046 26.2051 96.4499 25.3647C95.9951 24.5195 95.7678 23.5199 95.7678 22.3661C95.7678 21.2407 95.9951 20.2531 96.4499 19.4031C96.9046 18.5532 97.5447 17.8908 98.3701 17.416C99.2005 16.9411 100.174 16.7037 101.291 16.7037C102.043 16.7037 102.742 16.82 103.39 17.0527C104.042 17.2806 104.61 17.6249 105.095 18.0855C105.584 18.5461 105.965 19.1254 106.237 19.8234C106.508 20.5166 106.644 21.3286 106.644 22.2593V23.0926H97.0282V21.2123H103.671C103.671 20.7754 103.572 20.3884 103.375 20.0513C103.177 19.7142 102.903 19.4506 102.552 19.2607C102.206 19.066 101.803 18.9687 101.343 18.9687C100.864 18.9687 100.439 19.0755 100.068 19.2892C99.7022 19.4981 99.4155 19.7806 99.2079 20.1368C99.0004 20.4881 98.8941 20.8799 98.8891 21.312V23.0997C98.8891 23.641 98.9929 24.1087 99.2005 24.5028C99.4131 24.897 99.7121 25.2009 100.098 25.4145C100.483 25.6282 100.94 25.735 101.469 25.735C101.82 25.735 102.141 25.6876 102.433 25.5926C102.725 25.4976 102.974 25.3552 103.182 25.1652C103.39 24.9753 103.548 24.7426 103.656 24.4672L106.578 24.6524C106.429 25.3267 106.125 25.9155 105.666 26.4188C105.211 26.9174 104.623 27.3067 103.901 27.5869C103.184 27.8623 102.357 28 101.417 28Z" fill="#2CB1BC"/>
<path d="M117.002 17.3946C116.943 16.82 116.688 16.3737 116.238 16.0556C115.789 15.7374 115.178 15.5783 114.407 15.5783C113.883 15.5783 113.441 15.6496 113.08 15.792C112.719 15.9297 112.442 16.122 112.249 16.3689C112.062 16.6159 111.968 16.896 111.968 17.2094C111.958 17.4706 112.015 17.6985 112.138 17.8932C112.267 18.0878 112.442 18.2564 112.665 18.3989C112.887 18.5366 113.144 18.6576 113.436 18.7621C113.727 18.8618 114.039 18.9473 114.37 19.0185L115.734 19.3319C116.396 19.4744 117.004 19.6643 117.558 19.9017C118.112 20.1391 118.591 20.4311 118.996 20.7778C119.402 21.1244 119.716 21.5328 119.938 22.0028C120.165 22.4729 120.282 23.0119 120.286 23.6197C120.282 24.5123 120.044 25.2863 119.575 25.9416C119.11 26.5921 118.438 27.0978 117.558 27.4587C116.683 27.8148 115.628 27.9929 114.392 27.9929C113.166 27.9929 112.099 27.8124 111.189 27.4516C110.285 27.0907 109.578 26.5565 109.069 25.849C108.565 25.1368 108.3 24.2559 108.275 23.2066H111.382C111.417 23.6956 111.562 24.104 111.819 24.4316C112.081 24.7545 112.43 24.9991 112.865 25.1652C113.305 25.3267 113.802 25.4074 114.355 25.4074C114.899 25.4074 115.371 25.3314 115.771 25.1795C116.177 25.0275 116.49 24.8162 116.713 24.5456C116.935 24.2749 117.046 23.9639 117.046 23.6125C117.046 23.2849 116.945 23.0095 116.742 22.7863C116.545 22.5632 116.253 22.3732 115.868 22.2165C115.487 22.0598 115.02 21.9174 114.466 21.7892L112.813 21.3903C111.533 21.0912 110.522 20.6235 109.781 19.9872C109.039 19.3509 108.671 18.4938 108.676 17.416C108.671 16.5328 108.916 15.7612 109.41 15.1011C109.909 14.4411 110.594 13.9259 111.464 13.5556C112.334 13.1852 113.322 13 114.429 13C115.556 13 116.54 13.1852 117.38 13.5556C118.225 13.9259 118.883 14.4411 119.352 15.1011C119.822 15.7612 120.064 16.5256 120.079 17.3946H117.002Z" fill="#2CB1BC"/>
<path d="M125.545 21.4615V27.7863H122.387V13.1994H125.456V18.7764H125.589C125.846 18.1306 126.262 17.6249 126.835 17.2593C127.408 16.8889 128.128 16.7037 128.993 16.7037C129.783 16.7037 130.473 16.8699 131.061 17.2023C131.654 17.5299 132.114 18.0024 132.44 18.6197C132.771 19.2322 132.934 19.9658 132.929 20.8205V27.7863H129.771V21.3618C129.776 20.6876 129.598 20.1629 129.237 19.7878C128.881 19.4126 128.382 19.2251 127.74 19.2251C127.31 19.2251 126.929 19.3129 126.598 19.4886C126.272 19.6643 126.015 19.9207 125.827 20.2578C125.644 20.5902 125.55 20.9915 125.545 21.4615Z" fill="#2CB1BC"/>
<path d="M140.605 28C139.434 28 138.425 27.7721 137.58 27.3162C136.74 26.8557 136.092 26.2051 135.638 25.3647C135.183 24.5195 134.955 23.5199 134.955 22.3661C134.955 21.2407 135.183 20.2531 135.638 19.4031C136.092 18.5532 136.732 17.8908 137.558 17.416C138.388 16.9411 139.362 16.7037 140.479 16.7037C141.23 16.7037 141.93 16.82 142.577 17.0527C143.23 17.2806 143.798 17.6249 144.282 18.0855C144.772 18.5461 145.152 19.1254 145.424 19.8234C145.696 20.5166 145.832 21.3286 145.832 22.2593V23.0926H136.216V21.2123H142.859C142.859 20.7754 142.76 20.3884 142.562 20.0513C142.365 19.7142 142.09 19.4506 141.739 19.2607C141.393 19.066 140.991 18.9687 140.531 18.9687C140.051 18.9687 139.626 19.0755 139.256 19.2892C138.89 19.4981 138.603 19.7806 138.396 20.1368C138.188 20.4881 138.082 20.8799 138.077 21.312V23.0997C138.077 23.641 138.181 24.1087 138.388 24.5028C138.601 24.897 138.9 25.2009 139.285 25.4145C139.671 25.6282 140.128 25.735 140.657 25.735C141.008 25.735 141.329 25.6876 141.621 25.5926C141.912 25.4976 142.162 25.3552 142.37 25.1652C142.577 24.9753 142.735 24.7426 142.844 24.4672L145.765 24.6524C145.617 25.3267 145.313 25.9155 144.853 26.4188C144.399 26.9174 143.81 27.3067 143.089 27.5869C142.372 27.8623 141.544 28 140.605 28Z" fill="#2CB1BC"/>
<path d="M147.893 27.7863V16.8462H150.955V18.755H151.074C151.281 18.076 151.63 17.5632 152.119 17.2165C152.609 16.8651 153.172 16.6895 153.81 16.6895C153.968 16.6895 154.138 16.699 154.321 16.7179C154.504 16.7369 154.665 16.7631 154.803 16.7963V19.4886C154.655 19.4459 154.45 19.4079 154.188 19.3746C153.926 19.3414 153.686 19.3248 153.469 19.3248C153.004 19.3248 152.589 19.4221 152.223 19.6168C151.862 19.8067 151.576 20.0726 151.363 20.4145C151.155 20.7564 151.052 21.1505 151.052 21.5969V27.7863H147.893Z" fill="#2CB1BC"/>
<path d="M159.595 13.1994V27.7863H156.436V13.1994H159.595Z" fill="#2CB1BC"/>
<path d="M167.27 28C166.118 28 165.122 27.765 164.282 27.2949C163.447 26.82 162.802 26.16 162.347 25.3148C161.892 24.4649 161.665 23.4796 161.665 22.359C161.665 21.2289 161.892 20.2412 162.347 19.396C162.802 18.5461 163.447 17.886 164.282 17.416C165.122 16.9411 166.118 16.7037 167.27 16.7037C168.422 16.7037 169.415 16.9411 170.251 17.416C171.091 17.886 171.738 18.5461 172.193 19.396C172.648 20.2412 172.875 21.2289 172.875 22.359C172.875 23.4796 172.648 24.4649 172.193 25.3148C171.738 26.16 171.091 26.82 170.251 27.2949C169.415 27.765 168.422 28 167.27 28ZM167.285 25.6496C167.809 25.6496 168.246 25.5071 168.597 25.2222C168.948 24.9326 169.213 24.5385 169.391 24.0399C169.573 23.5413 169.665 22.9739 169.665 22.3376C169.665 21.7013 169.573 21.1339 169.391 20.6353C169.213 20.1368 168.948 19.7426 168.597 19.453C168.246 19.1633 167.809 19.0185 167.285 19.0185C166.756 19.0185 166.311 19.1633 165.95 19.453C165.594 19.7426 165.325 20.1368 165.142 20.6353C164.964 21.1339 164.875 21.7013 164.875 22.3376C164.875 22.9739 164.964 23.5413 165.142 24.0399C165.325 24.5385 165.594 24.9326 165.95 25.2222C166.311 25.5071 166.756 25.6496 167.285 25.6496Z" fill="#2CB1BC"/>
<path d="M180.074 28C178.908 28 177.905 27.7626 177.064 27.2878C176.229 26.8082 175.586 26.1434 175.137 25.2934C174.692 24.4435 174.469 23.4653 174.469 22.359C174.469 21.2384 174.694 20.2555 175.144 19.4103C175.599 18.5603 176.244 17.8979 177.079 17.4231C177.914 16.9435 178.908 16.7037 180.06 16.7037C181.053 16.7037 181.923 16.877 182.669 17.2236C183.416 17.5703 184.006 18.057 184.441 18.6838C184.876 19.3105 185.116 20.0465 185.16 20.8917H182.18C182.096 20.3457 181.874 19.9065 181.513 19.5741C181.157 19.2369 180.69 19.0684 180.111 19.0684C179.622 19.0684 179.195 19.1966 178.829 19.453C178.468 19.7047 178.186 20.0727 177.984 20.557C177.781 21.0413 177.68 21.6277 177.68 22.3162C177.68 23.0142 177.778 23.6078 177.976 24.0969C178.179 24.5859 178.463 24.9587 178.829 25.2151C179.195 25.4715 179.622 25.5997 180.111 25.5997C180.472 25.5997 180.796 25.5285 181.083 25.386C181.374 25.2436 181.614 25.037 181.802 24.7664C181.995 24.491 182.121 24.161 182.18 23.7764H185.16C185.111 24.6121 184.874 25.3481 184.449 25.9843C184.029 26.6159 183.448 27.1097 182.706 27.4658C181.965 27.8219 181.088 28 180.074 28Z" fill="#2CB1BC"/>
<path d="M190.045 24.6382L190.052 20.9986H190.512L194.159 16.8462H197.785L192.884 22.3447H192.135L190.045 24.6382ZM187.183 27.7863V13.1994H190.341V27.7863H187.183ZM194.3 27.7863L190.949 23.0214L193.055 20.8775L198 27.7863H194.3Z" fill="#2CB1BC"/>
<path d="M28.2148 25.5938C27.6289 25.0312 26.9616 24.8594 26.2129 25.0781L24.6504 23.5781C26.0501 21.9219 26.75 20.0625 26.75 18C26.75 15.5 25.8385 13.375 24.0156 11.625C22.1927 9.875 19.9792 9 17.375 9C14.7708 9 12.5573 9.875 10.7344 11.625C8.91146 13.375 8 15.5 8 18C8 20.5 8.91146 22.625 10.7344 24.375C12.5573 26.125 14.7708 27 17.375 27C19.6536 27 21.5905 26.3281 23.1855 24.9844L24.748 26.4844C24.5527 27.2344 24.7318 27.875 25.2852 28.4062L29.4355 32.3906C29.8587 32.7969 30.347 33 30.9004 33C31.4863 33 31.9746 32.7969 32.3652 32.3906C32.7884 31.9844 33 31.5156 33 30.9844C33 30.4531 32.7884 29.9844 32.3652 29.5781L28.2148 25.5938ZM17.375 24.9844C15.3568 24.9844 13.6396 24.3047 12.2236 22.9453C10.8076 21.5859 10.0996 19.9375 10.0996 18C10.0996 16.0625 10.8076 14.4141 12.2236 13.0547C13.6396 11.6953 15.3568 11.0156 17.375 11.0156C19.3932 11.0156 21.1104 11.6953 22.5264 13.0547C23.9424 14.4141 24.6504 16.0625 24.6504 18C24.6504 19.9375 23.9424 21.5859 22.5264 22.9453C21.1104 24.3047 19.3932 24.9844 17.375 24.9844Z" fill="white"/>
</svg>
